<svg xmlns="http://www.w3.org/2000/svg" width="41" height="33.709" viewBox="0 0 41 33.709">
  <path id="air" d="M5.542,13.238c3.98-3.417,7.123-6.118,15.653-1.3,4.1,2.314,7.4,3.189,10.152,3.184,4.817,0,7.94-2.679,10.639-4.994a2.362,2.362,0,0,0,.278-3.277,2.249,2.249,0,0,0-3.212-.285c-3.977,3.422-7.123,6.122-15.653,1.3C12.131,1.5,6.85,6.036,2.61,9.681a2.362,2.362,0,0,0-.276,3.277,2.246,2.246,0,0,0,3.209.28Zm33.51,4.96c-3.977,3.417-7.123,6.122-15.653,1.3C12.13,13.13,6.849,17.665,2.609,21.307a2.362,2.362,0,0,0-.276,3.277,2.246,2.246,0,0,0,3.209.285c3.98-3.419,7.123-6.121,15.653-1.3,4.1,2.318,7.4,3.189,10.152,3.189,4.817,0,7.94-2.679,10.639-5a2.357,2.357,0,0,0,.278-3.275,2.246,2.246,0,0,0-3.212-.282Zm0,11.63c-3.977,3.422-7.123,6.122-15.653,1.3C12.13,24.765,6.849,29.3,2.609,32.942a2.362,2.362,0,0,0-.276,3.277,2.244,2.244,0,0,0,3.209.28c3.98-3.417,7.123-6.116,15.653-1.3,4.1,2.314,7.4,3.189,10.152,3.189,4.817,0,7.94-2.683,10.639-5a2.362,2.362,0,0,0,.278-3.277,2.25,2.25,0,0,0-3.212-.285Z" transform="translate(-1.799 -4.68)" fill="#fff"/>
</svg>
