<svg xmlns="http://www.w3.org/2000/svg" width="39.824" height="39.826" viewBox="0 0 39.824 39.826">
  <g id="bxs-car-garage" transform="translate(-3 -2.999)">
    <path id="Path_10401" data-name="Path 10401" d="M4.991,35.834v2.543a1.991,1.991,0,0,0,1.991,1.991H8.974a1.991,1.991,0,0,0,1.991-1.991V36.386H34.859v1.991a1.991,1.991,0,0,0,1.991,1.991h1.991a1.991,1.991,0,0,0,1.991-1.991V35.835A3.963,3.963,0,0,0,42.824,32.4V26.43a3.986,3.986,0,0,0-2.445-3.674l-2.724-8.172A5.963,5.963,0,0,0,31.991,10.5H13.835a5.963,5.963,0,0,0-5.666,4.085L5.445,22.757A3.985,3.985,0,0,0,3,26.43V32.4a3.968,3.968,0,0,0,1.991,3.432ZM9.969,32.4a2.988,2.988,0,1,1,2.989-2.987A2.988,2.988,0,0,1,9.969,32.4Zm25.886,0a2.988,2.988,0,1,1,2.989-2.987A2.988,2.988,0,0,1,35.855,32.4ZM13.835,14.482H31.989a1.991,1.991,0,0,1,1.889,1.362l2.2,6.6H9.744l2.2-6.6a1.994,1.994,0,0,1,1.889-1.362Z" transform="translate(0 2.457)" fill="#fff"/>
    <path id="Path_10402" data-name="Path 10402" d="M42.824,13.729v-4.2L23.541,3.1a1.983,1.983,0,0,0-1.31.017L3,10.113V14.35L22.943,7.1Z" transform="translate(0 0)" fill="#fff"/>
  </g>
</svg>
