<svg xmlns="http://www.w3.org/2000/svg" width="44.272" height="44.272" viewBox="0 0 44.272 44.272">
  <g id="restaurant-sharp" transform="translate(-1.125 -1.125)">
    <path id="Path_10403" data-name="Path 10403" d="M31.052,20.3h1.372a7.33,7.33,0,0,0,5.218-2.162l7.549-7.609L43.142,8.467l-7.709,7.709-1.6-1.6L41.54,6.865,39.419,4.807l-7.68,7.679-1.6-1.6,7.709-7.709-2.067-2.05L28.174,8.674a7.331,7.331,0,0,0-2.162,5.219v1.371l-3.979,3.979L3.871,1.125C-.213,6.186,2.2,15.486,6.8,20.085l7.886,7.886c2.449,2.449,2.934,2.667,5.713,1.549.6-.241.816-.214,1.375.344l1.2,1.119c.27.277.277.358.277.887v.512a5.4,5.4,0,0,0,2.062,3.9L34.861,45.4,41.5,38.755,27.074,24.281Z" transform="translate(0.206)" fill="#0d323d"/>
    <path id="Path_10404" data-name="Path 10404" d="M20.62,25.9c-2.751.564-4.438,1.082-7.663-2.142-.051-.051-.1-.1-.157-.153l-1.8-1.8L1.125,31.569,8.5,38.948,21.785,25.666Z" transform="translate(0 6.449)" fill="#0d323d"/>
  </g>
</svg>
