<svg id="sale-svgrepo-com" xmlns="http://www.w3.org/2000/svg" width="21.836" height="19.529" viewBox="0 0 21.836 19.529">
  <g id="Group_9764" data-name="Group 9764" transform="translate(3.985 0)">
    <path id="Path_2988" data-name="Path 2988" d="M93.89,48.034l-.45-.513,7.053-6.185,6.807,6.189-.459.5-6.357-5.78Z" transform="translate(-93.44 -40.727)" fill="#019db3"/>
    <ellipse id="Ellipse_23" data-name="Ellipse 23" cx="1.598" cy="1.598" rx="1.598" ry="1.598" transform="translate(5.451)" fill="#019db3"/>
  </g>
  <rect id="Rectangle_357" data-name="Rectangle 357" width="21.836" height="13.125" transform="translate(0 6.404)" fill="#019db3"/>
  <g id="Group_9765" data-name="Group 9765" transform="translate(3.432 10.573)">
    <path id="Path_2989" data-name="Path 2989" d="M80.674,278.542a2.622,2.622,0,0,0,1.144.285c.474,0,.725-.2.725-.494s-.216-.447-.765-.643c-.757-.264-1.252-.684-1.252-1.347,0-.779.65-1.374,1.726-1.374a2.788,2.788,0,0,1,1.164.23l-.23.833a2.171,2.171,0,0,0-.954-.216c-.447,0-.664.2-.664.44,0,.291.257.419.846.642.806.3,1.184.718,1.184,1.361,0,.765-.588,1.415-1.84,1.415a2.99,2.99,0,0,1-1.293-.278Z" transform="translate(-80.464 -274.968)" fill="#fff"/>
    <path id="Path_2990" data-name="Path 2990" d="M163.923,280.1l-.326,1.171h-1.069l1.395-4.562h1.353l1.414,4.562h-1.11l-.352-1.171Zm1.157-.772-.284-.968c-.081-.27-.162-.609-.231-.88h-.014c-.068.27-.135.615-.21.88l-.27.968Z" transform="translate(-159.028 -276.638)" fill="#fff"/>
    <path id="Path_2991" data-name="Path 2991" d="M274.448,276.728h1.035v3.7H277.3v.867h-2.849Z" transform="translate(-266.175 -276.653)" fill="#fff"/>
    <path id="Path_2992" data-name="Path 2992" d="M358.25,279.36h-1.679v1.083h1.875v.846h-2.91v-4.561h2.815v.845h-1.78v.948h1.679v.839Z" transform="translate(-343.805 -276.653)" fill="#fff"/>
  </g>
</svg>
