<svg xmlns="http://www.w3.org/2000/svg" width="21.836" height="19.534" viewBox="0 0 21.836 19.534">
  <g id="sold-svgrepo-com" transform="translate(0)">
    <g id="Group_9766" data-name="Group 9766" transform="translate(3.985 0)">
      <path id="Path_2993" data-name="Path 2993" d="M93.89,47.994l-.45-.513,7.053-6.185,6.807,6.189-.459.506-6.357-5.78Z" transform="translate(-93.44 -40.686)" fill="#019db3"/>
      <ellipse id="Ellipse_24" data-name="Ellipse 24" cx="1.598" cy="1.598" rx="1.598" ry="1.598" transform="translate(5.451)" fill="#019db3"/>
    </g>
    <rect id="Rectangle_358" data-name="Rectangle 358" width="21.836" height="13.125" transform="translate(0 6.409)" fill="#019db3"/>
    <g id="Group_9767" data-name="Group 9767" transform="translate(2.75 10.585)">
      <path id="Path_2994" data-name="Path 2994" d="M64.674,278.758a2.622,2.622,0,0,0,1.144.285c.474,0,.725-.2.725-.494s-.216-.447-.765-.643c-.757-.264-1.252-.684-1.252-1.347,0-.779.65-1.374,1.726-1.374a2.789,2.789,0,0,1,1.164.23l-.23.832a2.171,2.171,0,0,0-.954-.216c-.447,0-.664.2-.664.44,0,.291.257.419.846.642.806.3,1.184.718,1.184,1.361,0,.765-.588,1.415-1.84,1.415a2.99,2.99,0,0,1-1.293-.278Z" transform="translate(-64.464 -275.184)" fill="#fff"/>
      <path id="Path_2995" data-name="Path 2995" d="M153.778,277.492a2.174,2.174,0,0,1-2.24,2.4,2.127,2.127,0,0,1-2.146-2.321,2.208,2.208,0,0,1,2.22-2.389A2.126,2.126,0,0,1,153.778,277.492Zm-3.3.061c0,.893.42,1.522,1.11,1.522s1.1-.664,1.1-1.55c0-.819-.392-1.522-1.1-1.522S150.482,276.666,150.482,277.553Z" transform="translate(-145.77 -275.184)" fill="#fff"/>
      <path id="Path_2996" data-name="Path 2996" d="M268.144,276.944h1.035v3.7h1.814v.867h-2.849v-4.562Z" transform="translate(-259.457 -276.869)" fill="#fff"/>
      <path id="Path_2997" data-name="Path 2997" d="M349.232,276.223a9.224,9.224,0,0,1,1.395-.095,2.934,2.934,0,0,1,1.868.487,2.019,2.019,0,0,1,.771,1.72,2.314,2.314,0,0,1-.757,1.847,3.271,3.271,0,0,1-2.105.589,9.013,9.013,0,0,1-1.171-.068Zm1.036,3.723a1.883,1.883,0,0,0,.359.021,1.414,1.414,0,0,0,1.543-1.6,1.309,1.309,0,0,0-1.435-1.449,2.137,2.137,0,0,0-.467.041v2.985Z" transform="translate(-337.087 -276.088)" fill="#fff"/>
    </g>
  </g>
</svg>
